# xmcd CD database file
#
# Track frame offsets:
#	150
#	15289
#	31046
#	48758
#	67173
#	85027
#	103904
#	121046
#	141146
#	155505
#	170165
#	188624
#	198686
#	211456
#
# Disc length: 2930 seconds
#
# Revision: 0
# Processed by: cddbd v1.5PL3 Copyright (c) Steve Scherf et al.
# Submitted via: CDex 1.50
#
DISCID=b90b700e
DTITLE=Candieiro - O Rei do Vanerão
DYEAR=2001
DGENRE=Country
TTITLE0=De Alma Campeira
TTITLE1=Ô de Casa, Ô de Fora
TTITLE2=Vamo Meu Cavalo
TTITLE3=Mulher Chorona
TTITLE4=O Rei do Vanerão
TTITLE5=Amar
TTITLE6="Cheguemo" no Baile
TTITLE7=Juntando Beiço com Beiço
TTITLE8=Pro Fandango eu Vou
TTITLE9=Arrodeia Matungo
TTITLE10=Amor Campeiro
TTITLE11=Num Tranco de Vanera
TTITLE12=Arrocha do Nó
TTITLE13=Tema
EXTD=YEAR: 2001
EXTT0=
EXTT1=
EXTT2=
EXTT3=
EXTT4=
EXTT5=
EXTT6=
EXTT7=
EXTT8=
EXTT9=
EXTT10=
EXTT11=
EXTT12=
EXTT13=
PLAYORDER=
